STARTFONT 2.1
FONT --Century12R10H-Regular-R-Normal--25-250-72-72-P-160-FONTSPECIFIC-0
SIZE 25 72 72
FONTBOUNDINGBOX 16 25 0 -5
METRICSSET 2
STARTPROPERTIES 19
FONT_ASCENT 20
FONT_DESCENT 5
PIXEL_SIZE 25
RESOLUTION_X 72
RESOLUTION_Y 72
POINT_SIZE 250
FACE_NAME "Classic 12-point 10-pitch H"
FOUNDRY ""
FAMILY_NAME "Century12R10H"
WEIGHT_NAME "Regular"
RELATIVE_WEIGHT 50
SLANT "R"
SPACING "P"
SETWIDTH_NAME "Normal"
RELATIVE_SETWIDTH 50
ADD_STYLE_NAME ""
AVERAGE_WIDTH 160
CHARSET_REGISTRY "FONTSPECIFIC"
CHARSET_ENCODING "0"
ENDPROPERTIES
CHARS 194
STARTCHAR char08
ENCODING 8
SWIDTH 640 0
DWIDTH 16 0
BBX 14 25 0 -5
VVECTOR 7 20
SWIDTH1 0 -1000
DWIDTH1 0 -25
BITMAP 
0000
0000
0000
C000
C000
C000
C000
C200
C600
CE00
DE00
FFFC
DE00
CE00
C600
C200
C000
C000
C000
C000
0000
0000
0000
0000
0000
ENDCHAR
STARTCHAR char09
ENCODING 9
SWIDTH 640 0
DWIDTH 16 0
BBX 15 25 0 -5
VVECTOR 8 20
SWIDTH1 0 -1000
DWIDTH1 0 -25
BITMAP 
0000
0000
0000
0006
0006
0006
0006
0086
00C6
00E6
00F6
7FFE
00F6
00E6
00C6
0086
0006
0006
0006
0006
0000
0000
0000
0000
0000
ENDCHAR
STARTCHAR char0C
ENCODING 12
SWIDTH 640 0
DWIDTH 16 0
BBX 13 25 1 -5
VVECTOR 8 20
SWIDTH1 0 -1000
DWIDTH1 0 -25
BITMAP 
0000
0000
0000
0000
0000
0000
FFF8
8008
8008
8008
8008
8008
8008
8008
8008
8208
8708
CF98
1FC0
3FE0
0000
0000
0000
0000
0000
ENDCHAR
STARTCHAR char0D
ENCODING 13
SWIDTH 640 0
DWIDTH 16 0
BBX 14 25 0 -5
VVECTOR 7 20
SWIDTH1 0 -1000
DWIDTH1 0 -25
BITMAP 
0000
0000
0000
0000
0000
0000
07F8
000C
000C
000C
000C
080C
180C
380C
780C
FFF8
7800
3800
1800
0800
0000
0000
0000
0000
0000
ENDCHAR
STARTCHAR char1C
ENCODING 28
SWIDTH 640 0
DWIDTH 16 0
BBX 13 25 1 -5
VVECTOR 8 20
SWIDTH1 0 -1000
DWIDTH1 0 -25
BITMAP 
0000
0000
0000
0000
0000
0000
0000
0800
1800
3800
7800
FFF8
7800
3800
1800
0800
0000
0000
0000
0000
0000
0000
0000
0000
0000
ENDCHAR
STARTCHAR char1D
ENCODING 29
SWIDTH 640 0
DWIDTH 16 0
BBX 13 25 1 -5
VVECTOR 8 20
SWIDTH1 0 -1000
DWIDTH1 0 -25
BITMAP 
0000
0000
0000
0000
0000
0000
0000
0080
00C0
00E0
00F0
FFF8
00F0
00E0
00C0
0080
0000
0000
0000
0000
0000
0000
0000
0000
0000
ENDCHAR
STARTCHAR char1E
ENCODING 30
SWIDTH 640 0
DWIDTH 16 0
BBX 9 25 3 -5
VVECTOR 8 20
SWIDTH1 0 -1000
DWIDTH1 0 -25
BITMAP 
0000
0000
0000
0000
0000
0800
1C00
3E00
7F00
FF80
0800
0800
0800
0800
0800
0800
0800
0800
0000
0000
0000
0000
0000
0000
0000
ENDCHAR
STARTCHAR char1F
ENCODING 31
SWIDTH 640 0
DWIDTH 16 0
BBX 9 25 3 -5
VVECTOR 8 20
SWIDTH1 0 -1000
DWIDTH1 0 -25
BITMAP 
0000
0000
0000
0000
0000
0800
0800
0800
0800
0800
0800
0800
0800
FF80
7F00
3E00
1C00
0800
0000
0000
0000
0000
0000
0000
0000
ENDCHAR
STARTCHAR char20
ENCODING 32
SWIDTH 640 0
DWIDTH 16 0
BBX 0 0 0 -5
VVECTOR 0 -5
SWIDTH1 0 0
DWIDTH1 0 0
BITMAP 
ENDCHAR
STARTCHAR char21
ENCODING 33
SWIDTH 640 0
DWIDTH 16 0
BBX 1 25 6 -5
VVECTOR 7 20
SWIDTH1 0 -1000
DWIDTH1 0 -25
BITMAP 
00
00
00
80
80
80
80
80
80
80
80
80
80
80
80
00
00
00
80
80
00
00
00
00
00
ENDCHAR
STARTCHAR char22
ENCODING 34
SWIDTH 640 0
DWIDTH 16 0
BBX 10 25 3 -5
VVECTOR 8 20
SWIDTH1 0 -1000
DWIDTH1 0 -25
BITMAP 
0000
0000
0000
E1C0
E1C0
4080
4080
4080
0000
0000
0000
0000
0000
0000
0000
0000
0000
0000
0000
0000
0000
0000
0000
0000
0000
ENDCHAR
STARTCHAR char23
ENCODING 35
SWIDTH 640 0
DWIDTH 16 0
BBX 14 25 1 -5
VVECTOR 8 20
SWIDTH1 0 -1000
DWIDTH1 0 -25
BITMAP 
0000
0000
0000
0840
0840
0840
0840
FFFC
0840
0840
0840
0840
0840
FFFC
0840
0840
0840
0840
0000
0000
0000
0000
0000
0000
0000
ENDCHAR
STARTCHAR char24
ENCODING 36
SWIDTH 640 0
DWIDTH 16 0
BBX 12 25 2 -5
VVECTOR 8 20
SWIDTH1 0 -1000
DWIDTH1 0 -25
BITMAP 
0000
0000
0400
0400
0400
1F80
6060
8020
8060
4000
3800
0700
00C0
0020
C010
8010
6060
1F80
0400
0400
0400
0000
0000
0000
0000
ENDCHAR
STARTCHAR char25
ENCODING 37
SWIDTH 640 0
DWIDTH 16 0
BBX 13 25 1 -5
VVECTOR 8 20
SWIDTH1 0 -1000
DWIDTH1 0 -25
BITMAP 
0000
0000
0000
7800
8400
8408
8410
8420
7840
0080
0100
0200
0400
0800
10F0
2108
4108
8108
0108
00F0
0000
0000
0000
0000
0000
ENDCHAR
STARTCHAR char26
ENCODING 38
SWIDTH 640 0
DWIDTH 16 0
BBX 14 25 1 -5
VVECTOR 8 20
SWIDTH1 0 -1000
DWIDTH1 0 -25
BITMAP 
0000
0000
0000
1E00
2100
2100
2100
2200
1400
0800
143C
2210
4210
4110
8110
80A0
8040
40A0
2110
1E0C
0000
0000
0000
0000
0000
ENDCHAR
STARTCHAR char27
ENCODING 39
SWIDTH 640 0
DWIDTH 16 0
BBX 3 25 6 -5
VVECTOR 8 20
SWIDTH1 0 -1000
DWIDTH1 0 -25
BITMAP 
00
00
00
E0
E0
40
40
40
00
00
00
00
00
00
00
00
00
00
00
00
00
00
00
00
00
ENDCHAR
STARTCHAR char28
ENCODING 40
SWIDTH 640 0
DWIDTH 16 0
BBX 8 25 5 -5
VVECTOR 9 20
SWIDTH1 0 -1000
DWIDTH1 0 -25
BITMAP 
00
07
18
20
40
40
80
80
80
80
80
80
80
80
80
80
80
80
80
40
40
20
18
07
00
ENDCHAR
STARTCHAR char29
ENCODING 41
SWIDTH 640 0
DWIDTH 16 0
BBX 8 25 3 -5
VVECTOR 7 20
SWIDTH1 0 -1000
DWIDTH1 0 -25
BITMAP 
00
E0
18
04
02
02
01
01
01
01
01
01
01
01
01
01
01
01
01
02
02
04
18
E0
00
ENDCHAR
STARTCHAR char2A
ENCODING 42
SWIDTH 640 0
DWIDTH 16 0
BBX 10 25 3 -5
VVECTOR 8 20
SWIDTH1 0 -1000
DWIDTH1 0 -25
BITMAP 
0000
0000
0000
0000
4080
2100
1200
0C00
F7C0
0C00
1200
2100
4080
0000
0000
0000
0000
0000
0000
0000
0000
0000
0000
0000
0000
ENDCHAR
STARTCHAR char2B
ENCODING 43
SWIDTH 640 0
DWIDTH 16 0
BBX 11 25 2 -5
VVECTOR 8 20
SWIDTH1 0 -1000
DWIDTH1 0 -25
BITMAP 
0000
0000
0000
0000
0000
0000
0000
0400
0400
0400
0400
FFE0
0400
0400
0400
0400
0000
0000
0000
0000
0000
0000
0000
0000
0000
ENDCHAR
STARTCHAR char2C
ENCODING 44
SWIDTH 640 0
DWIDTH 16 0
BBX 3 25 3 -5
VVECTOR 5 20
SWIDTH1 0 -1000
DWIDTH1 0 -25
BITMAP 
00
00
00
00
00
00
00
00
00
00
00
00
00
00
00
00
00
00
C0
E0
20
20
40
80
00
ENDCHAR
STARTCHAR char2D
ENCODING 45
SWIDTH 640 0
DWIDTH 16 0
BBX 12 25 2 -5
VVECTOR 8 20
SWIDTH1 0 -1000
DWIDTH1 0 -25
BITMAP 
0000
0000
0000
0000
0000
0000
0000
0000
0000
0000
0000
FFF0
0000
0000
0000
0000
0000
0000
0000
0000
0000
0000
0000
0000
0000
ENDCHAR
STARTCHAR char2E
ENCODING 46
SWIDTH 640 0
DWIDTH 16 0
BBX 2 25 3 -5
VVECTOR 4 20
SWIDTH1 0 -1000
DWIDTH1 0 -25
BITMAP 
00
00
00
00
00
00
00
00
00
00
00
00
00
00
00
00
00
00
C0
C0
00
00
00
00
00
ENDCHAR
STARTCHAR char2F
ENCODING 47
SWIDTH 640 0
DWIDTH 16 0
BBX 13 25 1 -5
VVECTOR 8 20
SWIDTH1 0 -1000
DWIDTH1 0 -25
BITMAP 
0000
0000
0000
0008
0010
0020
0020
0040
0080
0100
0100
0200
0400
0400
0800
1000
2000
2000
4000
8000
0000
0000
0000
0000
0000
ENDCHAR
STARTCHAR char30
ENCODING 48
SWIDTH 640 0
DWIDTH 16 0
BBX 11 25 2 -5
VVECTOR 8 20
SWIDTH1 0 -1000
DWIDTH1 0 -25
BITMAP 
0000
0000
0000
0E00
3180
4040
4040
8020
8020
8020
8020
8020
8020
8020
8020
8020
4040
4040
3180
0E00
0000
0000
0000
0000
0000
ENDCHAR
STARTCHAR char31
ENCODING 49
SWIDTH 640 0
DWIDTH 16 0
BBX 11 25 2 -5
VVECTOR 8 20
SWIDTH1 0 -1000
DWIDTH1 0 -25
BITMAP 
0000
0000
0000
0400
0C00
7C00
0400
0400
0400
0400
0400
0400
0400
0400
0400
0400
0400
0400
0400
FFE0
0000
0000
0000
0000
0000
ENDCHAR
STARTCHAR char32
ENCODING 50
SWIDTH 640 0
DWIDTH 16 0
BBX 12 25 2 -5
VVECTOR 8 20
SWIDTH1 0 -1000
DWIDTH1 0 -25
BITMAP 
0000
0000
0000
0E00
3180
4040
8020
C020
0020
0040
0080
0100
0600
0800
1000
2000
4010
8010
8030
FFF0
0000
0000
0000
0000
0000
ENDCHAR
STARTCHAR char33
ENCODING 51
SWIDTH 640 0
DWIDTH 16 0
BBX 12 25 2 -5
VVECTOR 8 20
SWIDTH1 0 -1000
DWIDTH1 0 -25
BITMAP 
0000
0000
0000
0F00
30C0
4020
8010
C010
0010
0020
0040
0780
0040
0020
0010
C010
8010
4020
30C0
0F00
0000
0000
0000
0000
0000
ENDCHAR
STARTCHAR char34
ENCODING 52
SWIDTH 640 0
DWIDTH 16 0
BBX 12 25 2 -5
VVECTOR 8 20
SWIDTH1 0 -1000
DWIDTH1 0 -25
BITMAP 
0000
0000
0000
0080
0180
0280
0480
0480
0880
1080
2080
2080
4080
8080
FFF0
0080
0080
0080
0080
07F0
0000
0000
0000
0000
0000
ENDCHAR
STARTCHAR char35
ENCODING 53
SWIDTH 640 0
DWIDTH 16 0
BBX 12 25 2 -5
VVECTOR 8 20
SWIDTH1 0 -1000
DWIDTH1 0 -25
BITMAP 
0000
0000
0000
7FC0
4000
4000
4000
4000
4000
4F00
50C0
6020
0010
0010
0010
C010
8010
4020
30C0
0F00
0000
0000
0000
0000
0000
ENDCHAR
STARTCHAR char36
ENCODING 54
SWIDTH 640 0
DWIDTH 16 0
BBX 12 25 2 -5
VVECTOR 8 20
SWIDTH1 0 -1000
DWIDTH1 0 -25
BITMAP 
0000
0000
0000
0F00
30C0
4020
8060
8000
8000
8000
8F00
B0C0
C020
8010
8010
8010
8010
4020
30C0
0F00
0000
0000
0000
0000
0000
ENDCHAR
STARTCHAR char37
ENCODING 55
SWIDTH 640 0
DWIDTH 16 0
BBX 12 25 2 -5
VVECTOR 8 20
SWIDTH1 0 -1000
DWIDTH1 0 -25
BITMAP 
0000
0000
0000
FFF0
C020
8040
8080
0100
0100
0200
0200
0200
0400
0400
0400
0400
0800
0800
0800
0800
0000
0000
0000
0000
0000
ENDCHAR
STARTCHAR char38
ENCODING 56
SWIDTH 640 0
DWIDTH 16 0
BBX 12 25 2 -5
VVECTOR 8 20
SWIDTH1 0 -1000
DWIDTH1 0 -25
BITMAP 
0000
0000
0000
0F00
1080
2040
4020
4020
2040
1080
0F00
1080
2040
4020
8010
8010
8010
4020
2040
1F80
0000
0000
0000
0000
0000
ENDCHAR
STARTCHAR char39
ENCODING 57
SWIDTH 640 0
DWIDTH 16 0
BBX 12 25 2 -5
VVECTOR 8 20
SWIDTH1 0 -1000
DWIDTH1 0 -25
BITMAP 
0000
0000
0000
0F00
30C0
4020
8010
8010
8010
8010
4030
30D0
0F10
0010
0010
0010
6020
4040
3180
0E00
0000
0000
0000
0000
0000
ENDCHAR
STARTCHAR char3A
ENCODING 58
SWIDTH 640 0
DWIDTH 16 0
BBX 2 25 4 -5
VVECTOR 5 20
SWIDTH1 0 -1000
DWIDTH1 0 -25
BITMAP 
00
00
00
00
00
00
00
00
00
C0
C0
00
00
00
00
00
00
00
C0
C0
00
00
00
00
00
ENDCHAR
STARTCHAR char3B
ENCODING 59
SWIDTH 640 0
DWIDTH 16 0
BBX 3 25 3 -5
VVECTOR 5 20
SWIDTH1 0 -1000
DWIDTH1 0 -25
BITMAP 
00
00
00
00
00
00
00
00
00
C0
C0
00
00
00
00
00
00
00
C0
E0
20
20
40
80
00
ENDCHAR
STARTCHAR char3C
ENCODING 60
SWIDTH 640 0
DWIDTH 16 0
BBX 8 25 4 -5
VVECTOR 8 20
SWIDTH1 0 -1000
DWIDTH1 0 -25
BITMAP 
00
00
00
00
01
02
04
08
10
20
40
80
40
20
10
08
04
02
01
00
00
00
00
00
00
ENDCHAR
STARTCHAR char3D
ENCODING 61
SWIDTH 640 0
DWIDTH 16 0
BBX 12 25 2 -5
VVECTOR 8 20
SWIDTH1 0 -1000
DWIDTH1 0 -25
BITMAP 
0000
0000
0000
0000
0000
0000
0000
0000
0000
FFF0
0000
0000
0000
FFF0
0000
0000
0000
0000
0000
0000
0000
0000
0000
0000
0000
ENDCHAR
STARTCHAR char3E
ENCODING 62
SWIDTH 640 0
DWIDTH 16 0
BBX 8 25 4 -5
VVECTOR 8 20
SWIDTH1 0 -1000
DWIDTH1 0 -25
BITMAP 
00
00
00
00
80
40
20
10
08
04
02
01
02
04
08
10
20
40
80
00
00
00
00
00
00
ENDCHAR
STARTCHAR char3F
ENCODING 63
SWIDTH 640 0
DWIDTH 16 0
BBX 11 25 2 -5
VVECTOR 8 20
SWIDTH1 0 -1000
DWIDTH1 0 -25
BITMAP 
0000
0000
0000
0E00
3180
4040
8020
C020
0040
0080
0100
0200
0400
0400
0400
0000
0000
0000
0400
0400
0000
0000
0000
0000
0000
ENDCHAR
STARTCHAR char40
ENCODING 64
SWIDTH 640 0
DWIDTH 16 0
BBX 14 25 1 -5
VVECTOR 8 20
SWIDTH1 0 -1000
DWIDTH1 0 -25
BITMAP 
0000
0000
0000
0000
0FC0
3030
4008
8004
8784
8884
8884
8884
8988
8670
8000
4000
3000
0FE0
0000
0000
0000
0000
0000
0000
0000
ENDCHAR
STARTCHAR char41
ENCODING 65
SWIDTH 640 0
DWIDTH 16 0
BBX 14 25 1 -5
VVECTOR 8 20
SWIDTH1 0 -1000
DWIDTH1 0 -25
BITMAP 
0000
0000
0000
0300
0480
0480
0840
0840
0840
0840
1020
1020
1FE0
1020
1020
2010
2010
2010
2010
F87C
0000
0000
0000
0000
0000
ENDCHAR
STARTCHAR char42
ENCODING 66
SWIDTH 640 0
DWIDTH 16 0
BBX 13 25 1 -5
VVECTOR 8 20
SWIDTH1 0 -1000
DWIDTH1 0 -25
BITMAP 
0000
0000
0000
FF00
20C0
2020
2010
2010
2020
20C0
3F80
2060
2010
2008
2008
2008
2008
2010
2060
FF80
0000
0000
0000
0000
0000
ENDCHAR
STARTCHAR char43
ENCODING 67
SWIDTH 640 0
DWIDTH 16 0
BBX 12 25 2 -5
VVECTOR 8 20
SWIDTH1 0 -1000
DWIDTH1 0 -25
BITMAP 
0000
0000
0000
0710
18D0
2030
4010
4010
8000
8000
8000
8000
8000
8000
8000
4010
4010
2020
18C0
0700
0000
0000
0000
0000
0000
ENDCHAR
STARTCHAR char44
ENCODING 68
SWIDTH 640 0
DWIDTH 16 0
BBX 13 25 1 -5
VVECTOR 8 20
SWIDTH1 0 -1000
DWIDTH1 0 -25
BITMAP 
0000
0000
0000
FF00
20C0
2020
2010
2010
2008
2008
2008
2008
2008
2008
2008
2010
2010
2020
20C0
FF00
0000
0000
0000
0000
0000
ENDCHAR
STARTCHAR char45
ENCODING 69
SWIDTH 640 0
DWIDTH 16 0
BBX 12 25 2 -5
VVECTOR 8 20
SWIDTH1 0 -1000
DWIDTH1 0 -25
BITMAP 
0000
0000
0000
FFF0
2030
2010
2010
2000
2000
2100
2100
3F00
2100
2100
2000
2000
2010
2010
2030
FFF0
0000
0000
0000
0000
0000
ENDCHAR
STARTCHAR char46
ENCODING 70
SWIDTH 640 0
DWIDTH 16 0
BBX 12 25 2 -5
VVECTOR 8 20
SWIDTH1 0 -1000
DWIDTH1 0 -25
BITMAP 
0000
0000
0000
FFF0
2030
2010
2010
2000
2000
2100
2100
3F00
2100
2100
2000
2000
2000
2000
2000
FC00
0000
0000
0000
0000
0000
ENDCHAR
STARTCHAR char47
ENCODING 71
SWIDTH 640 0
DWIDTH 16 0
BBX 13 25 2 -5
VVECTOR 9 20
SWIDTH1 0 -1000
DWIDTH1 0 -25
BITMAP 
0000
0000
0000
0710
18D0
2030
4010
4010
8000
8000
8000
8000
8078
8010
8010
4010
4030
2050
1890
0710
0000
0000
0000
0000
0000
ENDCHAR
STARTCHAR char48
ENCODING 72
SWIDTH 640 0
DWIDTH 16 0
BBX 14 25 1 -5
VVECTOR 8 20
SWIDTH1 0 -1000
DWIDTH1 0 -25
BITMAP 
0000
0000
0000
F87C
2010
2010
2010
2010
2010
2010
2010
3FF0
2010
2010
2010
2010
2010
2010
2010
F87C
0000
0000
0000
0000
0000
ENDCHAR
STARTCHAR char49
ENCODING 73
SWIDTH 640 0
DWIDTH 16 0
BBX 9 25 3 -5
VVECTOR 8 20
SWIDTH1 0 -1000
DWIDTH1 0 -25
BITMAP 
0000
0000
0000
FF80
0800
0800
0800
0800
0800
0800
0800
0800
0800
0800
0800
0800
0800
0800
0800
FF80
0000
0000
0000
0000
0000
ENDCHAR
STARTCHAR char4A
ENCODING 74
SWIDTH 640 0
DWIDTH 16 0
BBX 12 25 2 -5
VVECTOR 8 20
SWIDTH1 0 -1000
DWIDTH1 0 -25
BITMAP 
0000
0000
0000
07F0
0080
0080
0080
0080
0080
0080
0080
0080
0080
0080
0080
0080
C080
8100
4200
3C00
0000
0000
0000
0000
0000
ENDCHAR
STARTCHAR char4B
ENCODING 75
SWIDTH 640 0
DWIDTH 16 0
BBX 13 25 2 -5
VVECTOR 9 20
SWIDTH1 0 -1000
DWIDTH1 0 -25
BITMAP 
0000
0000
0000
F878
2020
2040
2040
2080
2100
2100
2200
2300
2500
2880
2880
3040
2040
2020
2020
F078
0000
0000
0000
0000
0000
ENDCHAR
STARTCHAR char4C
ENCODING 76
SWIDTH 640 0
DWIDTH 16 0
BBX 12 25 2 -5
VVECTOR 8 20
SWIDTH1 0 -1000
DWIDTH1 0 -25
BITMAP 
0000
0000
0000
F800
2000
2000
2000
2000
2000
2000
2000
2000
2000
2000
2000
2010
2010
2010
2030
FFF0
0000
0000
0000
0000
0000
ENDCHAR
STARTCHAR char4D
ENCODING 77
SWIDTH 640 0
DWIDTH 16 0
BBX 14 25 1 -5
VVECTOR 8 20
SWIDTH1 0 -1000
DWIDTH1 0 -25
BITMAP 
0000
0000
0000
C00C
4008
6018
6018
5028
5028
4848
4848
4488
4488
4308
4008
4008
4008
4008
4008
E01C
0000
0000
0000
0000
0000
ENDCHAR
STARTCHAR char4E
ENCODING 78
SWIDTH 640 0
DWIDTH 16 0
BBX 13 25 1 -5
VVECTOR 8 20
SWIDTH1 0 -1000
DWIDTH1 0 -25
BITMAP 
0000
0000
0000
C038
6010
5010
5010
4810
4810
4410
4410
4210
4110
4110
4090
4090
4050
4050
4030
E010
0000
0000
0000
0000
0000
ENDCHAR
STARTCHAR char4F
ENCODING 79
SWIDTH 640 0
DWIDTH 16 0
BBX 12 25 2 -5
VVECTOR 8 20
SWIDTH1 0 -1000
DWIDTH1 0 -25
BITMAP 
0000
0000
0000
0F00
30C0
4020
4020
8010
8010
8010
8010
8010
8010
8010
8010
8010
4020
4020
30C0
0F00
0000
0000
0000
0000
0000
ENDCHAR
STARTCHAR char50
ENCODING 80
SWIDTH 640 0
DWIDTH 16 0
BBX 13 25 1 -5
VVECTOR 8 20
SWIDTH1 0 -1000
DWIDTH1 0 -25
BITMAP 
0000
0000
0000
FF80
2060
2010
2008
2008
2008
2008
2010
2060
3F80
2000
2000
2000
2000
2000
2000
FC00
0000
0000
0000
0000
0000
ENDCHAR
STARTCHAR char51
ENCODING 81
SWIDTH 640 0
DWIDTH 16 0
BBX 13 25 2 -5
VVECTOR 9 20
SWIDTH1 0 -1000
DWIDTH1 0 -25
BITMAP 
0000
0000
0000
0F00
30C0
4020
4020
8010
8010
8010
8010
8010
8010
8010
8E10
9110
40A0
4020
30C0
0F00
0088
0070
0000
0000
0000
ENDCHAR
STARTCHAR char52
ENCODING 82
SWIDTH 640 0
DWIDTH 16 0
BBX 13 25 2 -5
VVECTOR 9 20
SWIDTH1 0 -1000
DWIDTH1 0 -25
BITMAP 
0000
0000
0000
FF00
20C0
2020
2010
2010
2010
2020
20C0
3F00
20C0
2020
2020
2020
2020
2020
2020
F018
0000
0000
0000
0000
0000
ENDCHAR
STARTCHAR char53
ENCODING 83
SWIDTH 640 0
DWIDTH 16 0
BBX 12 25 2 -5
VVECTOR 8 20
SWIDTH1 0 -1000
DWIDTH1 0 -25
BITMAP 
0000
0000
0000
1E20
61A0
8060
8020
8020
4000
3000
0C00
0300
00C0
0020
0010
8010
8010
C020
B0C0
8F00
0000
0000
0000
0000
0000
ENDCHAR
STARTCHAR char54
ENCODING 84
SWIDTH 640 0
DWIDTH 16 0
BBX 13 25 1 -5
VVECTOR 8 20
SWIDTH1 0 -1000
DWIDTH1 0 -25
BITMAP 
0000
0000
0000
FFF8
C218
8208
8208
0200
0200
0200
0200
0200
0200
0200
0200
0200
0200
0200
0200
1FC0
0000
0000
0000
0000
0000
ENDCHAR
STARTCHAR char55
ENCODING 85
SWIDTH 640 0
DWIDTH 16 0
BBX 13 25 1 -5
VVECTOR 8 20
SWIDTH1 0 -1000
DWIDTH1 0 -25
BITMAP 
0000
0000
0000
E038
4010
4010
4010
4010
4010
4010
4010
4010
4010
4010
4010
4010
4010
2020
18C0
0700
0000
0000
0000
0000
0000
ENDCHAR
STARTCHAR char56
ENCODING 86
SWIDTH 640 0
DWIDTH 16 0
BBX 14 25 1 -5
VVECTOR 8 20
SWIDTH1 0 -1000
DWIDTH1 0 -25
BITMAP 
0000
0000
0000
F87C
2010
2010
2010
2010
1020
1020
1020
1020
0840
0840
0840
0840
0480
0480
0480
0300
0000
0000
0000
0000
0000
ENDCHAR
STARTCHAR char57
ENCODING 87
SWIDTH 640 0
DWIDTH 16 0
BBX 13 25 1 -5
VVECTOR 8 20
SWIDTH1 0 -1000
DWIDTH1 0 -25
BITMAP 
0000
0000
0000
E038
4010
4010
4010
4010
4010
4210
4210
4210
4510
4510
4510
28A0
28A0
28A0
1040
1040
0000
0000
0000
0000
0000
ENDCHAR
STARTCHAR char58
ENCODING 88
SWIDTH 640 0
DWIDTH 16 0
BBX 13 25 1 -5
VVECTOR 8 20
SWIDTH1 0 -1000
DWIDTH1 0 -25
BITMAP 
0000
0000
0000
F078
2020
1040
1040
0880
0880
0500
0500
0200
0500
0500
0880
0880
1040
1040
2020
F078
0000
0000
0000
0000
0000
ENDCHAR
STARTCHAR char59
ENCODING 89
SWIDTH 640 0
DWIDTH 16 0
BBX 13 25 1 -5
VVECTOR 8 20
SWIDTH1 0 -1000
DWIDTH1 0 -25
BITMAP 
0000
0000
0000
F078
2020
2020
1040
1040
0880
0880
0500
0500
0200
0200
0200
0200
0200
0200
0200
1FC0
0000
0000
0000
0000
0000
ENDCHAR
STARTCHAR char5A
ENCODING 90
SWIDTH 640 0
DWIDTH 16 0
BBX 12 25 2 -5
VVECTOR 8 20
SWIDTH1 0 -1000
DWIDTH1 0 -25
BITMAP 
0000
0000
0000
FFE0
C020
8040
8080
0080
0100
0200
0200
0400
0800
0800
1000
2000
2010
4010
8030
FFF0
0000
0000
0000
0000
0000
ENDCHAR
STARTCHAR char5B
ENCODING 91
SWIDTH 640 0
DWIDTH 16 0
BBX 6 25 7 -5
VVECTOR 10 20
SWIDTH1 0 -1000
DWIDTH1 0 -25
BITMAP 
00
FC
80
80
80
80
80
80
80
80
80
80
80
80
80
80
80
80
80
80
80
80
80
FC
00
ENDCHAR
STARTCHAR char5C
ENCODING 92
SWIDTH 640 0
DWIDTH 16 0
BBX 13 25 1 -5
VVECTOR 8 20
SWIDTH1 0 -1000
DWIDTH1 0 -25
BITMAP 
0000
0000
0000
8000
4000
2000
2000
1000
1000
0800
0400
0200
0100
0100
0080
0040
0020
0020
0010
0008
0000
0000
0000
0000
0000
ENDCHAR
STARTCHAR char5D
ENCODING 93
SWIDTH 640 0
DWIDTH 16 0
BBX 6 25 3 -5
VVECTOR 6 20
SWIDTH1 0 -1000
DWIDTH1 0 -25
BITMAP 
00
FC
04
04
04
04
04
04
04
04
04
04
04
04
04
04
04
04
04
04
04
04
04
FC
00
ENDCHAR
STARTCHAR char5E
ENCODING 94
SWIDTH 640 0
DWIDTH 16 0
BBX 6 25 5 -5
VVECTOR 8 20
SWIDTH1 0 -1000
DWIDTH1 0 -25
BITMAP 
30
48
84
00
00
00
00
00
00
00
00
00
00
00
00
00
00
00
00
00
00
00
00
00
00
ENDCHAR
STARTCHAR char5F
ENCODING 95
SWIDTH 640 0
DWIDTH 16 0
BBX 16 25 0 -5
VVECTOR 8 20
SWIDTH1 0 -1000
DWIDTH1 0 -25
BITMAP 
0000
0000
0000
0000
0000
0000
0000
0000
0000
0000
0000
0000
0000
0000
0000
0000
0000
0000
0000
0000
0000
0000
0000
0000
FFFF
ENDCHAR
STARTCHAR char60
ENCODING 96
SWIDTH 640 0
DWIDTH 16 0
BBX 4 25 6 -5
VVECTOR 8 20
SWIDTH1 0 -1000
DWIDTH1 0 -25
BITMAP 
C0
60
10
00
00
00
00
00
00
00
00
00
00
00
00
00
00
00
00
00
00
00
00
00
00
ENDCHAR
STARTCHAR char61
ENCODING 97
SWIDTH 640 0
DWIDTH 16 0
BBX 12 25 2 -5
VVECTOR 8 20
SWIDTH1 0 -1000
DWIDTH1 0 -25
BITMAP 
0000
0000
0000
0000
0000
0000
0000
0000
1F00
2080
4040
0040
03C0
1C40
6040
8040
8040
80C0
4340
3C30
0000
0000
0000
0000
0000
ENDCHAR
STARTCHAR char62
ENCODING 98
SWIDTH 640 0
DWIDTH 16 0
BBX 13 25 1 -5
VVECTOR 8 20
SWIDTH1 0 -1000
DWIDTH1 0 -25
BITMAP 
0000
0000
0000
E000
2000
2000
2000
2000
23C0
2420
2810
3008
2008
2008
2008
2008
3008
2810
2420
23C0
0000
0000
0000
0000
0000
ENDCHAR
STARTCHAR char63
ENCODING 99
SWIDTH 640 0
DWIDTH 16 0
BBX 11 25 2 -5
VVECTOR 8 20
SWIDTH1 0 -1000
DWIDTH1 0 -25
BITMAP 
0000
0000
0000
0000
0000
0000
0000
0000
0F00
30C0
4020
8060
8000
8000
8000
8000
8000
4020
30C0
0F00
0000
0000
0000
0000
0000
ENDCHAR
STARTCHAR char64
ENCODING 100
SWIDTH 640 0
DWIDTH 16 0
BBX 13 25 2 -5
VVECTOR 9 20
SWIDTH1 0 -1000
DWIDTH1 0 -25
BITMAP 
0000
0000
0000
00E0
0020
0020
0020
0020
1E20
2120
40A0
8060
8020
8020
8020
8020
8060
40A0
2120
1E38
0000
0000
0000
0000
0000
ENDCHAR
STARTCHAR char65
ENCODING 101
SWIDTH 640 0
DWIDTH 16 0
BBX 11 25 2 -5
VVECTOR 8 20
SWIDTH1 0 -1000
DWIDTH1 0 -25
BITMAP 
0000
0000
0000
0000
0000
0000
0000
0000
0E00
3180
4040
8020
8020
FFE0
8000
8000
8000
4020
30C0
0F00
0000
0000
0000
0000
0000
ENDCHAR
STARTCHAR char66
ENCODING 102
SWIDTH 640 0
DWIDTH 16 0
BBX 12 25 2 -5
VVECTOR 8 20
SWIDTH1 0 -1000
DWIDTH1 0 -25
BITMAP 
0000
0000
0000
03C0
0420
0810
0800
0800
0800
7F80
0800
0800
0800
0800
0800
0800
0800
0800
0800
FF80
0000
0000
0000
0000
0000
ENDCHAR
STARTCHAR char67
ENCODING 103
SWIDTH 640 0
DWIDTH 16 0
BBX 13 25 1 -5
VVECTOR 8 20
SWIDTH1 0 -1000
DWIDTH1 0 -25
BITMAP 
0000
0000
0000
0000
0000
0000
0000
0038
0740
18C0
2020
4010
4010
4010
2020
18C0
0F00
3000
4000
2000
3FE0
4010
8008
4010
3FE0
ENDCHAR
STARTCHAR char68
ENCODING 104
SWIDTH 640 0
DWIDTH 16 0
BBX 13 25 2 -5
VVECTOR 9 20
SWIDTH1 0 -1000
DWIDTH1 0 -25
BITMAP 
0000
0000
0000
E000
2000
2000
2000
2000
2380
2440
2820
3020
2020
2020
2020
2020
2020
2020
2020
F838
0000
0000
0000
0000
0000
ENDCHAR
STARTCHAR char69
ENCODING 105
SWIDTH 640 0
DWIDTH 16 0
BBX 9 25 3 -5
VVECTOR 8 20
SWIDTH1 0 -1000
DWIDTH1 0 -25
BITMAP 
0000
0000
0000
1800
1800
0000
0000
0000
F800
0800
0800
0800
0800
0800
0800
0800
0800
0800
0800
FF80
0000
0000
0000
0000
0000
ENDCHAR
STARTCHAR char6A
ENCODING 106
SWIDTH 640 0
DWIDTH 16 0
BBX 9 25 3 -5
VVECTOR 8 20
SWIDTH1 0 -1000
DWIDTH1 0 -25
BITMAP 
0000
0000
0000
0180
0180
0000
0000
0000
0F80
0080
0080
0080
0080
0080
0080
0080
0080
0080
0080
0080
0080
C080
8100
4200
3C00
ENDCHAR
STARTCHAR char6B
ENCODING 107
SWIDTH 640 0
DWIDTH 16 0
BBX 13 25 2 -5
VVECTOR 9 20
SWIDTH1 0 -1000
DWIDTH1 0 -25
BITMAP 
0000
0000
0000
E000
2000
2000
2000
2000
21F0
2040
2080
2100
2200
2400
2A00
3100
2080
2040
2020
F078
0000
0000
0000
0000
0000
ENDCHAR
STARTCHAR char6C
ENCODING 108
SWIDTH 640 0
DWIDTH 16 0
BBX 9 25 3 -5
VVECTOR 8 20
SWIDTH1 0 -1000
DWIDTH1 0 -25
BITMAP 
0000
0000
0000
F800
0800
0800
0800
0800
0800
0800
0800
0800
0800
0800
0800
0800
0800
0800
0800
FF80
0000
0000
0000
0000
0000
ENDCHAR
STARTCHAR char6D
ENCODING 109
SWIDTH 640 0
DWIDTH 16 0
BBX 13 25 2 -5
VVECTOR 9 20
SWIDTH1 0 -1000
DWIDTH1 0 -25
BITMAP 
0000
0000
0000
0000
0000
0000
0000
0000
CC60
5290
6310
4210
4210
4210
4210
4210
4210
4210
4210
C218
0000
0000
0000
0000
0000
ENDCHAR
STARTCHAR char6E
ENCODING 110
SWIDTH 640 0
DWIDTH 16 0
BBX 13 25 2 -5
VVECTOR 9 20
SWIDTH1 0 -1000
DWIDTH1 0 -25
BITMAP 
0000
0000
0000
0000
0000
0000
0000
0000
E380
2440
2820
3020
2020
2020
2020
2020
2020
2020
2020
F038
0000
0000
0000
0000
0000
ENDCHAR
STARTCHAR char6F
ENCODING 111
SWIDTH 640 0
DWIDTH 16 0
BBX 12 25 2 -5
VVECTOR 8 20
SWIDTH1 0 -1000
DWIDTH1 0 -25
BITMAP 
0000
0000
0000
0000
0000
0000
0000
0000
0F00
30C0
4020
8010
8010
8010
8010
8010
8010
4020
30C0
0F00
0000
0000
0000
0000
0000
ENDCHAR
STARTCHAR char70
ENCODING 112
SWIDTH 640 0
DWIDTH 16 0
BBX 13 25 1 -5
VVECTOR 8 20
SWIDTH1 0 -1000
DWIDTH1 0 -25
BITMAP 
0000
0000
0000
0000
0000
0000
0000
0000
E380
2C60
3010
2008
2008
2008
2008
2008
2008
3010
2C60
2380
2000
2000
2000
2000
F800
ENDCHAR
STARTCHAR char71
ENCODING 113
SWIDTH 640 0
DWIDTH 16 0
BBX 13 25 2 -5
VVECTOR 9 20
SWIDTH1 0 -1000
DWIDTH1 0 -25
BITMAP 
0000
0000
0000
0000
0000
0000
0000
0000
0E20
31A0
4060
8020
8020
8020
8020
8020
8020
4060
31A0
0E20
0020
0020
0020
0020
00F8
ENDCHAR
STARTCHAR char72
ENCODING 114
SWIDTH 640 0
DWIDTH 16 0
BBX 12 25 2 -5
VVECTOR 8 20
SWIDTH1 0 -1000
DWIDTH1 0 -25
BITMAP 
0000
0000
0000
0000
0000
0000
0000
0000
E1C0
2620
2810
3030
2000
2000
2000
2000
2000
2000
2000
FC00
0000
0000
0000
0000
0000
ENDCHAR
STARTCHAR char73
ENCODING 115
SWIDTH 640 0
DWIDTH 16 0
BBX 10 25 3 -5
VVECTOR 8 20
SWIDTH1 0 -1000
DWIDTH1 0 -25
BITMAP 
0000
0000
0000
0000
0000
0000
0000
0000
1E40
61C0
8040
8040
6000
1E00
0180
0040
8040
8040
E080
9F00
0000
0000
0000
0000
0000
ENDCHAR
STARTCHAR char74
ENCODING 116
SWIDTH 640 0
DWIDTH 16 0
BBX 11 25 2 -5
VVECTOR 8 20
SWIDTH1 0 -1000
DWIDTH1 0 -25
BITMAP 
0000
0000
0000
0000
0800
0800
0800
0800
FF80
0800
0800
0800
0800
0800
0800
0800
0800
0820
0420
03C0
0000
0000
0000
0000
0000
ENDCHAR
STARTCHAR char75
ENCODING 117
SWIDTH 640 0
DWIDTH 16 0
BBX 13 25 2 -5
VVECTOR 9 20
SWIDTH1 0 -1000
DWIDTH1 0 -25
BITMAP 
0000
0000
0000
0000
0000
0000
0000
0000
E0E0
2020
2020
2020
2020
2020
2020
2020
2020
20A0
1120
0E38
0000
0000
0000
0000
0000
ENDCHAR
STARTCHAR char76
ENCODING 118
SWIDTH 640 0
DWIDTH 16 0
BBX 13 25 1 -5
VVECTOR 8 20
SWIDTH1 0 -1000
DWIDTH1 0 -25
BITMAP 
0000
0000
0000
0000
0000
0000
0000
0000
F8F8
2020
2020
1040
1040
1040
0880
0880
0500
0500
0200
0200
0000
0000
0000
0000
0000
ENDCHAR
STARTCHAR char77
ENCODING 119
SWIDTH 640 0
DWIDTH 16 0
BBX 13 25 1 -5
VVECTOR 8 20
SWIDTH1 0 -1000
DWIDTH1 0 -25
BITMAP 
0000
0000
0000
0000
0000
0000
0000
0000
E038
4010
4010
4010
2220
2220
2220
1540
1540
1540
0880
0880
0000
0000
0000
0000
0000
ENDCHAR
STARTCHAR char78
ENCODING 120
SWIDTH 640 0
DWIDTH 16 0
BBX 15 25 0 -5
VVECTOR 8 20
SWIDTH1 0 -1000
DWIDTH1 0 -25
BITMAP 
0000
0000
0000
0000
0000
0000
0000
0000
787C
1010
0820
0440
0280
0100
0280
0440
0820
1010
2008
F83E
0000
0000
0000
0000
0000
ENDCHAR
STARTCHAR char79
ENCODING 121
SWIDTH 640 0
DWIDTH 16 0
BBX 15 25 1 -5
VVECTOR 9 20
SWIDTH1 0 -1000
DWIDTH1 0 -25
BITMAP 
0000
0000
0000
0000
0000
0000
0000
0000
F83E
2008
2008
1010
1010
0820
0820
0440
0440
0280
0280
0100
0100
C200
8200
4400
3800
ENDCHAR
STARTCHAR char7A
ENCODING 122
SWIDTH 640 0
DWIDTH 16 0
BBX 12 25 2 -5
VVECTOR 8 20
SWIDTH1 0 -1000
DWIDTH1 0 -25
BITMAP 
0000
0000
0000
0000
0000
0000
0000
0000
FFF0
C020
8040
8080
0100
0200
0400
0800
1010
2010
4030
FFF0
0000
0000
0000
0000
0000
ENDCHAR
STARTCHAR char7B
ENCODING 123
SWIDTH 640 0
DWIDTH 16 0
BBX 8 25 4 -5
VVECTOR 8 20
SWIDTH1 0 -1000
DWIDTH1 0 -25
BITMAP 
00
07
08
10
10
10
10
10
10
10
20
C0
20
10
10
10
10
10
10
10
10
08
07
00
00
ENDCHAR
STARTCHAR char7C
ENCODING 124
SWIDTH 640 0
DWIDTH 16 0
BBX 1 25 7 -5
VVECTOR 8 20
SWIDTH1 0 -1000
DWIDTH1 0 -25
BITMAP 
00
80
80
80
80
80
80
80
80
80
80
80
80
80
80
80
80
80
80
80
80
80
00
00
00
ENDCHAR
STARTCHAR char7D
ENCODING 125
SWIDTH 640 0
DWIDTH 16 0
BBX 8 25 4 -5
VVECTOR 8 20
SWIDTH1 0 -1000
DWIDTH1 0 -25
BITMAP 
00
E0
10
08
08
08
08
08
08
08
04
03
04
08
08
08
08
08
08
08
08
10
E0
00
00
ENDCHAR
STARTCHAR char7E
ENCODING 126
SWIDTH 640 0
DWIDTH 16 0
BBX 11 25 3 -5
VVECTOR 9 20
SWIDTH1 0 -1000
DWIDTH1 0 -25
BITMAP 
7820
8420
83C0
0000
0000
0000
0000
0000
0000
0000
0000
0000
0000
0000
0000
0000
0000
0000
0000
0000
0000
0000
0000
0000
0000
ENDCHAR
STARTCHAR char7F
ENCODING 127
SWIDTH 640 0
DWIDTH 16 0
BBX 0 0 1 -5
VVECTOR 1 -5
SWIDTH1 0 0
DWIDTH1 0 0
BITMAP 
ENDCHAR
STARTCHAR char80
ENCODING 128
SWIDTH 640 0
DWIDTH 16 0
BBX 14 25 1 -5
VVECTOR 8 20
SWIDTH1 0 -1000
DWIDTH1 0 -25
BITMAP 
1860
0000
0000
0000
0300
0480
0480
0840
0840
0840
1020
1020
1FE0
1020
1020
2010
2010
2010
2010
F87C
0000
0000
0000
0000
0000
ENDCHAR
STARTCHAR char81
ENCODING 129
SWIDTH 640 0
DWIDTH 16 0
BBX 14 25 1 -5
VVECTOR 8 20
SWIDTH1 0 -1000
DWIDTH1 0 -25
BITMAP 
0780
0840
0840
0840
0780
0480
0480
0840
0840
0840
1020
1020
1FE0
1020
1020
2010
2010
2010
2010
F87C
0000
0000
0000
0000
0000
ENDCHAR
STARTCHAR char82
ENCODING 130
SWIDTH 640 0
DWIDTH 16 0
BBX 12 25 2 -5
VVECTOR 8 20
SWIDTH1 0 -1000
DWIDTH1 0 -25
BITMAP 
0000
0000
0000
0710
18D0
2030
4010
4010
8000
8000
8000
8000
8000
8000
8000
4010
4010
2020
18C0
0700
0200
0100
0100
1100
0E00
ENDCHAR
STARTCHAR char83
ENCODING 131
SWIDTH 640 0
DWIDTH 16 0
BBX 12 25 2 -5
VVECTOR 8 20
SWIDTH1 0 -1000
DWIDTH1 0 -25
BITMAP 
00C0
0180
0200
0000
FFF0
2030
2010
2010
2000
2000
2100
3F00
2100
2000
2000
2000
2010
2010
2030
FFF0
0000
0000
0000
0000
0000
ENDCHAR
STARTCHAR char84
ENCODING 132
SWIDTH 640 0
DWIDTH 16 0
BBX 14 25 1 -5
VVECTOR 8 20
SWIDTH1 0 -1000
DWIDTH1 0 -25
BITMAP 
0E20
11C0
0000
0000
E07C
3010
2810
2810
2410
2410
2210
2210
2110
2110
2090
2090
2050
2050
2030
F810
0000
0000
0000
0000
0000
ENDCHAR
STARTCHAR char85
ENCODING 133
SWIDTH 640 0
DWIDTH 16 0
BBX 12 25 2 -5
VVECTOR 8 20
SWIDTH1 0 -1000
DWIDTH1 0 -25
BITMAP 
30C0
0000
0000
0000
0F00
30C0
4020
4020
8010
8010
8010
8010
8010
8010
8010
8010
4020
4020
30C0
0F00
0000
0000
0000
0000
0000
ENDCHAR
STARTCHAR char86
ENCODING 134
SWIDTH 640 0
DWIDTH 16 0
BBX 13 25 1 -5
VVECTOR 8 20
SWIDTH1 0 -1000
DWIDTH1 0 -25
BITMAP 
3060
0000
0000
0000
E038
4010
4010
4010
4010
4010
4010
4010
4010
4010
4010
4010
4010
2020
18C0
0700
0000
0000
0000
0000
0000
ENDCHAR
STARTCHAR char87
ENCODING 135
SWIDTH 640 0
DWIDTH 16 0
BBX 12 25 2 -5
VVECTOR 8 20
SWIDTH1 0 -1000
DWIDTH1 0 -25
BITMAP 
0000
0000
0180
0300
0400
0000
0000
0000
1F00
2080
4040
0040
03C0
1C40
6040
8040
8040
80C0
4340
3C30
0000
0000
0000
0000
0000
ENDCHAR
STARTCHAR char88
ENCODING 136
SWIDTH 640 0
DWIDTH 16 0
BBX 12 25 2 -5
VVECTOR 8 20
SWIDTH1 0 -1000
DWIDTH1 0 -25
BITMAP 
0000
0000
3000
1800
0400
0000
0000
0000
1F00
2080
4040
0040
03C0
1C40
6040
8040
8040
80C0
4140
3C30
0000
0000
0000
0000
0000
ENDCHAR
STARTCHAR char89
ENCODING 137
SWIDTH 640 0
DWIDTH 16 0
BBX 12 25 2 -5
VVECTOR 8 20
SWIDTH1 0 -1000
DWIDTH1 0 -25
BITMAP 
0000
0400
0A00
1100
2080
0000
0000
0000
1F00
2080
4040
0040
03C0
1C40
6040
8040
8040
80C0
4340
3C30
0000
0000
0000
0000
0000
ENDCHAR
STARTCHAR char8A
ENCODING 138
SWIDTH 640 0
DWIDTH 16 0
BBX 12 25 1 -5
VVECTOR 7 20
SWIDTH1 0 -1000
DWIDTH1 0 -25
BITMAP 
0000
0000
0000
0000
3180
0000
0000
0000
1F00
2080
4040
0040
03C0
1C40
6040
8040
8040
80C0
4340
3C30
0000
0000
0000
0000
0000
ENDCHAR
STARTCHAR char8B
ENCODING 139
SWIDTH 640 0
DWIDTH 16 0
BBX 12 25 2 -5
VVECTOR 8 20
SWIDTH1 0 -1000
DWIDTH1 0 -25
BITMAP 
0000
0000
0000
3C20
43C0
0000
0000
0000
1F00
2080
4040
0040
03C0
1C40
6040
8040
8040
80C0
4340
3C30
0000
0000
0000
0000
0000
ENDCHAR
STARTCHAR char8C
ENCODING 140
SWIDTH 640 0
DWIDTH 16 0
BBX 12 25 2 -5
VVECTOR 8 20
SWIDTH1 0 -1000
DWIDTH1 0 -25
BITMAP 
1E00
2100
2100
2100
1E00
0000
0000
0000
1F00
2080
4040
0040
03C0
1C40
6040
8040
8040
80C0
4340
3C30
0000
0000
0000
0000
0000
ENDCHAR
STARTCHAR char8D
ENCODING 141
SWIDTH 640 0
DWIDTH 16 0
BBX 11 25 2 -5
VVECTOR 8 20
SWIDTH1 0 -1000
DWIDTH1 0 -25
BITMAP 
0000
0000
0000
0000
0000
0000
0000
0000
0F00
30C0
4020
8060
8000
8000
8000
8000
8000
4020
30C0
0F00
0200
0100
0100
1100
0E00
ENDCHAR
STARTCHAR char8E
ENCODING 142
SWIDTH 640 0
DWIDTH 16 0
BBX 11 25 2 -5
VVECTOR 8 20
SWIDTH1 0 -1000
DWIDTH1 0 -25
BITMAP 
0000
0000
0180
0300
0400
0000
0000
0000
0E00
3180
4040
8020
8020
FFE0
8000
8000
8000
4020
30C0
0F00
0000
0000
0000
0000
0000
ENDCHAR
STARTCHAR char8F
ENCODING 143
SWIDTH 640 0
DWIDTH 16 0
BBX 11 25 2 -5
VVECTOR 8 20
SWIDTH1 0 -1000
DWIDTH1 0 -25
BITMAP 
0000
0000
3000
1800
0400
0000
0000
0000
0E00
3180
4040
8020
8020
FFE0
8000
8000
8000
4020
30C0
0F00
0000
0000
0000
0000
0000
ENDCHAR
STARTCHAR char90
ENCODING 144
SWIDTH 640 0
DWIDTH 16 0
BBX 11 25 2 -5
VVECTOR 8 20
SWIDTH1 0 -1000
DWIDTH1 0 -25
BITMAP 
0000
0400
0A00
1100
2080
0000
0000
0000
0E00
3180
4040
8020
8020
FFE0
8000
8000
8000
4020
30C0
0F00
0000
0000
0000
0000
0000
ENDCHAR
STARTCHAR char91
ENCODING 145
SWIDTH 640 0
DWIDTH 16 0
BBX 11 25 2 -5
VVECTOR 8 20
SWIDTH1 0 -1000
DWIDTH1 0 -25
BITMAP 
0000
0000
0000
0000
6180
0000
0000
0000
0E00
3180
4040
8020
8020
FFE0
8000
8000
8000
4020
30C0
0F00
0000
0000
0000
0000
0000
ENDCHAR
STARTCHAR char92
ENCODING 146
SWIDTH 640 0
DWIDTH 16 0
BBX 9 25 3 -5
VVECTOR 8 20
SWIDTH1 0 -1000
DWIDTH1 0 -25
BITMAP 
0000
0000
0300
0600
0800
0000
0000
0000
F800
0800
0800
0800
0800
0800
0800
0800
0800
0800
0800
FF80
0000
0000
0000
0000
0000
ENDCHAR
STARTCHAR char93
ENCODING 147
SWIDTH 640 0
DWIDTH 16 0
BBX 9 25 3 -5
VVECTOR 8 20
SWIDTH1 0 -1000
DWIDTH1 0 -25
BITMAP 
0000
0000
C000
6000
1000
0000
0000
0000
F800
0800
0800
0800
0800
0800
0800
0800
0800
0800
0800
FF80
0000
0000
0000
0000
0000
ENDCHAR
STARTCHAR char94
ENCODING 148
SWIDTH 640 0
DWIDTH 16 0
BBX 9 25 3 -5
VVECTOR 8 20
SWIDTH1 0 -1000
DWIDTH1 0 -25
BITMAP 
0000
1000
2800
4400
8200
0000
0000
0000
F800
0800
0800
0800
0800
0800
0800
0800
0800
0800
0800
FF80
0000
0000
0000
0000
0000
ENDCHAR
STARTCHAR char95
ENCODING 149
SWIDTH 640 0
DWIDTH 16 0
BBX 9 25 3 -5
VVECTOR 8 20
SWIDTH1 0 -1000
DWIDTH1 0 -25
BITMAP 
0000
0000
0000
0000
C300
0000
0000
0000
F800
0800
0800
0800
0800
0800
0800
0800
0800
0800
0800
FF80
0000
0000
0000
0000
0000
ENDCHAR
STARTCHAR char96
ENCODING 150
SWIDTH 640 0
DWIDTH 16 0
BBX 13 25 2 -5
VVECTOR 9 20
SWIDTH1 0 -1000
DWIDTH1 0 -25
BITMAP 
0000
0000
0000
1E10
21E0
0000
0000
0000
E380
2440
2820
3020
2020
2020
2020
2020
2020
2020
2020
F838
0000
0000
0000
0000
0000
ENDCHAR
STARTCHAR char97
ENCODING 151
SWIDTH 640 0
DWIDTH 16 0
BBX 12 25 2 -5
VVECTOR 8 20
SWIDTH1 0 -1000
DWIDTH1 0 -25
BITMAP 
0000
0000
0180
0300
0400
0000
0000
0000
0F00
30C0
4020
8010
8010
8010
8010
8010
8010
4020
30C0
0F00
0000
0000
0000
0000
0000
ENDCHAR
STARTCHAR char98
ENCODING 152
SWIDTH 640 0
DWIDTH 16 0
BBX 12 25 2 -5
VVECTOR 8 20
SWIDTH1 0 -1000
DWIDTH1 0 -25
BITMAP 
0000
0000
3000
1800
0400
0000
0000
0000
0F00
30C0
4020
8010
8010
8010
8010
8010
8010
4020
30C0
0F00
0000
0000
0000
0000
0000
ENDCHAR
STARTCHAR char99
ENCODING 153
SWIDTH 640 0
DWIDTH 16 0
BBX 12 25 2 -5
VVECTOR 8 20
SWIDTH1 0 -1000
DWIDTH1 0 -25
BITMAP 
0000
0600
0900
1080
2040
0000
0000
0000
0F00
30C0
4020
8010
8010
8010
8010
8010
8010
4020
30C0
0F00
0000
0000
0000
0000
0000
ENDCHAR
STARTCHAR char9A
ENCODING 154
SWIDTH 640 0
DWIDTH 16 0
BBX 12 25 2 -5
VVECTOR 8 20
SWIDTH1 0 -1000
DWIDTH1 0 -25
BITMAP 
0000
0000
0000
0000
30C0
0000
0000
0000
0F00
30C0
4020
8010
8010
8010
8010
8010
8010
4020
30C0
0F00
0000
0000
0000
0000
0000
ENDCHAR
STARTCHAR char9B
ENCODING 155
SWIDTH 640 0
DWIDTH 16 0
BBX 12 25 2 -5
VVECTOR 8 20
SWIDTH1 0 -1000
DWIDTH1 0 -25
BITMAP 
0000
0000
0000
3C20
43C0
0000
0000
0000
0F00
30C0
4020
8010
8010
8010
8010
8010
8010
4020
30C0
0F00
0000
0000
0000
0000
0000
ENDCHAR
STARTCHAR char9C
ENCODING 156
SWIDTH 640 0
DWIDTH 16 0
BBX 13 25 2 -5
VVECTOR 9 20
SWIDTH1 0 -1000
DWIDTH1 0 -25
BITMAP 
0000
0000
0180
0300
0400
0000
0000
0000
E0E0
2020
2020
2020
2020
2020
2020
2020
2020
20A0
1120
0E38
0000
0000
0000
0000
0000
ENDCHAR
STARTCHAR char9D
ENCODING 157
SWIDTH 640 0
DWIDTH 16 0
BBX 13 25 2 -5
VVECTOR 9 20
SWIDTH1 0 -1000
DWIDTH1 0 -25
BITMAP 
0000
0000
1800
0C00
0200
0000
0000
0000
E0E0
2020
2020
2020
2020
2020
2020
2020
2020
20A0
1120
0E38
0000
0000
0000
0000
0000
ENDCHAR
STARTCHAR char9E
ENCODING 158
SWIDTH 640 0
DWIDTH 16 0
BBX 13 25 2 -5
VVECTOR 9 20
SWIDTH1 0 -1000
DWIDTH1 0 -25
BITMAP 
0000
0200
0500
0880
1040
0000
0000
0000
E0E0
2020
2020
2020
2020
2020
2020
2020
2020
20A0
1120
0E38
0000
0000
0000
0000
0000
ENDCHAR
STARTCHAR char9F
ENCODING 159
SWIDTH 640 0
DWIDTH 16 0
BBX 13 25 2 -5
VVECTOR 9 20
SWIDTH1 0 -1000
DWIDTH1 0 -25
BITMAP 
0000
0000
0000
0000
18C0
0000
0000
0000
E0E0
2020
2020
2020
2020
2020
2020
2020
2020
20A0
1120
0E38
0000
0000
0000
0000
0000
ENDCHAR
STARTCHAR charA0
ENCODING 160
SWIDTH 640 0
DWIDTH 16 0
BBX 11 25 2 -5
VVECTOR 8 20
SWIDTH1 0 -1000
DWIDTH1 0 -25
BITMAP 
0000
0000
0000
0400
0400
0400
8420
8420
FFE0
8420
8420
0400
0400
0400
0400
0400
0400
0400
0400
0400
0400
0000
0000
0000
0000
ENDCHAR
STARTCHAR charA1
ENCODING 161
SWIDTH 640 0
DWIDTH 16 0
BBX 7 25 4 -5
VVECTOR 8 20
SWIDTH1 0 -1000
DWIDTH1 0 -25
BITMAP 
00
00
00
38
44
82
82
82
44
38
00
00
00
00
00
00
00
00
00
00
00
00
00
00
00
ENDCHAR
STARTCHAR charA2
ENCODING 162
SWIDTH 640 0
DWIDTH 16 0
BBX 8 25 3 -5
VVECTOR 7 20
SWIDTH1 0 -1000
DWIDTH1 0 -25
BITMAP 
00
00
00
08
08
08
08
3E
41
80
80
80
80
41
3E
08
08
08
08
00
00
00
00
00
00
ENDCHAR
STARTCHAR charA3
ENCODING 163
SWIDTH 640 0
DWIDTH 16 0
BBX 13 25 2 -5
VVECTOR 9 20
SWIDTH1 0 -1000
DWIDTH1 0 -25
BITMAP 
0000
0000
0000
1F00
2080
4080
4000
2000
1000
0800
77C0
0400
0200
0100
0100
7100
8900
8508
8088
7C70
0000
0000
0000
0000
0000
ENDCHAR
STARTCHAR charA4
ENCODING 164
SWIDTH 640 0
DWIDTH 16 0
BBX 9 25 3 -5
VVECTOR 8 20
SWIDTH1 0 -1000
DWIDTH1 0 -25
BITMAP 
0000
0000
0000
3E00
4100
8300
8000
4000
3000
4C00
8300
8080
8080
6080
1900
0600
0100
0080
6080
4100
3E00
0000
0000
0000
0000
ENDCHAR
STARTCHAR charA5
ENCODING 165
SWIDTH 640 0
DWIDTH 16 0
BBX 6 25 5 -5
VVECTOR 8 20
SWIDTH1 0 -1000
DWIDTH1 0 -25
BITMAP 
00
00
00
00
00
00
00
00
00
78
FC
FC
FC
78
00
00
00
00
00
00
00
00
00
00
00
ENDCHAR
STARTCHAR charA6
ENCODING 166
SWIDTH 640 0
DWIDTH 16 0
BBX 13 25 2 -5
VVECTOR 9 20
SWIDTH1 0 -1000
DWIDTH1 0 -25
BITMAP 
0000
0000
0000
3C78
4440
8440
8440
8440
8440
8440
4440
3C40
0440
0440
0440
0440
0440
0440
0440
0440
0440
0000
0000
0000
0000
ENDCHAR
STARTCHAR charA7
ENCODING 167
SWIDTH 640 0
DWIDTH 16 0
BBX 13 25 1 -5
VVECTOR 8 20
SWIDTH1 0 -1000
DWIDTH1 0 -25
BITMAP 
0000
0000
0000
0F80
1040
2020
2020
2020
2040
2080
2100
2080
2040
2020
2010
2008
2008
2208
2210
E3E0
0000
0000
0000
0000
0000
ENDCHAR
STARTCHAR charA8
ENCODING 168
SWIDTH 640 0
DWIDTH 16 0
BBX 14 25 1 -5
VVECTOR 8 20
SWIDTH1 0 -1000
DWIDTH1 0 -25
BITMAP 
0000
0000
0000
0000
0FC0
3030
4008
8004
8784
8444
8444
8704
8484
8444
8004
4008
3030
0FC0
0000
0000
0000
0000
0000
0000
0000
ENDCHAR
STARTCHAR charA9
ENCODING 169
SWIDTH 640 0
DWIDTH 16 0
BBX 14 25 1 -5
VVECTOR 8 20
SWIDTH1 0 -1000
DWIDTH1 0 -25
BITMAP 
0000
0000
0000
0000
0FC0
3030
4008
8004
8704
8804
8804
8804
8804
8704
8004
4008
3030
0FC0
0000
0000
0000
0000
0000
0000
0000
ENDCHAR
STARTCHAR charAA
ENCODING 170
SWIDTH 640 0
DWIDTH 16 0
BBX 13 25 1 -5
VVECTOR 8 20
SWIDTH1 0 -1000
DWIDTH1 0 -25
BITMAP 
0000
0000
0000
FA08
2318
22A8
2248
0000
0000
0000
0000
0000
0000
0000
0000
0000
0000
0000
0000
0000
0000
0000
0000
0000
0000
ENDCHAR
STARTCHAR charAB
ENCODING 171
SWIDTH 640 0
DWIDTH 16 0
BBX 4 25 6 -5
VVECTOR 8 20
SWIDTH1 0 -1000
DWIDTH1 0 -25
BITMAP 
30
60
80
00
00
00
00
00
00
00
00
00
00
00
00
00
00
00
00
00
00
00
00
00
00
ENDCHAR
STARTCHAR charAC
ENCODING 172
SWIDTH 640 0
DWIDTH 16 0
BBX 8 25 4 -5
VVECTOR 8 20
SWIDTH1 0 -1000
DWIDTH1 0 -25
BITMAP 
C3
00
00
00
00
00
00
00
00
00
00
00
00
00
00
00
00
00
00
00
00
00
00
00
00
ENDCHAR
STARTCHAR charAD
ENCODING 173
SWIDTH 640 0
DWIDTH 16 0
BBX 12 25 2 -5
VVECTOR 8 20
SWIDTH1 0 -1000
DWIDTH1 0 -25
BITMAP 
0000
0000
0000
0000
0000
0000
0040
0080
0100
FFF0
0200
0400
0800
FFF0
1000
2000
4000
0000
0000
0000
0000
0000
0000
0000
0000
ENDCHAR
STARTCHAR charAE
ENCODING 174
SWIDTH 640 0
DWIDTH 16 0
BBX 13 25 1 -5
VVECTOR 8 20
SWIDTH1 0 -1000
DWIDTH1 0 -25
BITMAP 
0000
0000
0000
7FF8
1108
1108
2100
2100
2100
2100
2100
3FF0
2100
4100
4100
4100
4100
4108
4108
E1F8
0000
0000
0000
0000
0000
ENDCHAR
STARTCHAR charAF
ENCODING 175
SWIDTH 640 0
DWIDTH 16 0
BBX 12 25 2 -5
VVECTOR 8 20
SWIDTH1 0 -1000
DWIDTH1 0 -25
BITMAP 
0000
0000
0000
0F00
30D0
4020
4020
8050
8090
8110
8210
8210
8410
8810
9010
A010
4020
4020
B0C0
0F00
0000
0000
0000
0000
0000
ENDCHAR
STARTCHAR charB0
ENCODING 176
SWIDTH 640 0
DWIDTH 16 0
BBX 13 25 1 -5
VVECTOR 8 20
SWIDTH1 0 -1000
DWIDTH1 0 -25
BITMAP 
0000
0000
0000
0000
0000
0000
0000
0000
3860
4490
8108
8208
8408
4910
30E0
0000
0000
0000
0000
0000
0000
0000
0000
0000
0000
ENDCHAR
STARTCHAR charB1
ENCODING 177
SWIDTH 640 0
DWIDTH 16 0
BBX 11 25 2 -5
VVECTOR 8 20
SWIDTH1 0 -1000
DWIDTH1 0 -25
BITMAP 
0000
0000
0000
0000
0000
0000
0000
0400
0400
0400
0400
FFE0
0400
0400
0400
0400
0000
0000
0000
FFE0
0000
0000
0000
0000
0000
ENDCHAR
STARTCHAR charB2
ENCODING 178
SWIDTH 640 0
DWIDTH 16 0
BBX 9 25 3 -5
VVECTOR 8 20
SWIDTH1 0 -1000
DWIDTH1 0 -25
BITMAP 
0000
0000
0000
0000
0000
0000
0000
0400
0800
1000
2000
4000
2000
1000
0800
0400
0000
0000
0000
FF80
0000
0000
0000
0000
0000
ENDCHAR
STARTCHAR charB3
ENCODING 179
SWIDTH 640 0
DWIDTH 16 0
BBX 9 25 4 -5
VVECTOR 9 20
SWIDTH1 0 -1000
DWIDTH1 0 -25
BITMAP 
0000
0000
0000
0000
0000
0000
0000
1000
0800
0400
0200
0100
0200
0400
0800
1000
0000
0000
0000
FF80
0000
0000
0000
0000
0000
ENDCHAR
STARTCHAR charB4
ENCODING 180
SWIDTH 640 0
DWIDTH 16 0
BBX 13 25 1 -5
VVECTOR 8 20
SWIDTH1 0 -1000
DWIDTH1 0 -25
BITMAP 
0000
0000
0000
F078
2020
2020
1040
1040
0880
0880
0500
7DF0
0200
0200
7FF0
0200
0200
0200
0200
1FC0
0000
0000
0000
0000
0000
ENDCHAR
STARTCHAR charB5
ENCODING 181
SWIDTH 640 0
DWIDTH 16 0
BBX 14 25 1 -5
VVECTOR 8 20
SWIDTH1 0 -1000
DWIDTH1 0 -25
BITMAP 
0000
0000
0000
0000
0000
0000
0000
0000
4020
4020
4020
4020
4020
4020
4020
4020
4060
60A0
5124
4E18
4000
4000
4000
8000
0000
ENDCHAR
STARTCHAR charB6
ENCODING 182
SWIDTH 640 0
DWIDTH 16 0
BBX 11 25 2 -5
VVECTOR 8 20
SWIDTH1 0 -1000
DWIDTH1 0 -25
BITMAP 
0000
0000
0000
1E00
2180
0040
0040
0020
0E20
31A0
4060
8020
8020
8020
8020
8020
8020
4040
3180
0E00
0000
0000
0000
0000
0000
ENDCHAR
STARTCHAR charB7
ENCODING 183
SWIDTH 640 0
DWIDTH 16 0
BBX 13 25 2 -5
VVECTOR 9 20
SWIDTH1 0 -1000
DWIDTH1 0 -25
BITMAP 
0000
FFE0
C010
6008
3000
1800
0C00
0600
0300
0180
00C0
0060
0020
0040
0080
0100
0200
0400
0800
1000
2000
4008
8010
FFE0
0000
ENDCHAR
STARTCHAR charB8
ENCODING 184
SWIDTH 640 0
DWIDTH 16 0
BBX 14 25 1 -5
VVECTOR 8 20
SWIDTH1 0 -1000
DWIDTH1 0 -25
BITMAP 
0000
0000
0000
FFFC
1020
1020
1020
1020
1020
1020
1020
1020
1020
1020
1020
1020
1020
1020
1020
7878
0000
0000
0000
0000
0000
ENDCHAR
STARTCHAR charB9
ENCODING 185
SWIDTH 640 0
DWIDTH 16 0
BBX 14 25 1 -5
VVECTOR 8 20
SWIDTH1 0 -1000
DWIDTH1 0 -25
BITMAP 
0000
0000
0000
0000
0000
0000
0000
0004
7FF8
8840
8840
0840
0840
0840
0840
0840
0840
0840
0840
1080
0000
0000
0000
0000
0000
ENDCHAR
STARTCHAR charBA
ENCODING 186
SWIDTH 640 0
DWIDTH 16 0
BBX 13 25 1 -5
VVECTOR 8 20
SWIDTH1 0 -1000
DWIDTH1 0 -25
BITMAP 
0000
00E0
0110
0208
0200
0200
0200
0200
0200
0200
0200
0200
0200
0200
0200
0200
0200
0200
0200
0200
0200
8200
4400
3800
0000
ENDCHAR
STARTCHAR charBB
ENCODING 187
SWIDTH 640 0
DWIDTH 16 0
BBX 12 25 2 -5
VVECTOR 8 20
SWIDTH1 0 -1000
DWIDTH1 0 -25
BITMAP 
0000
0000
0000
1F00
2080
4040
0040
03C0
1C40
6040
8040
8040
80C0
4340
3C30
0000
0000
0000
0000
FFF0
0000
0000
0000
0000
0000
ENDCHAR
STARTCHAR charBC
ENCODING 188
SWIDTH 640 0
DWIDTH 16 0
BBX 12 25 2 -5
VVECTOR 8 20
SWIDTH1 0 -1000
DWIDTH1 0 -25
BITMAP 
0000
0000
0000
0F00
30C0
4020
8010
8010
8010
8010
8010
8010
4020
30C0
0F00
0000
0000
0000
0000
FFF0
0000
0000
0000
0000
0000
ENDCHAR
STARTCHAR charBD
ENCODING 189
SWIDTH 640 0
DWIDTH 16 0
BBX 12 25 2 -5
VVECTOR 8 20
SWIDTH1 0 -1000
DWIDTH1 0 -25
BITMAP 
0000
0000
0000
0F00
30C0
4020
4020
8010
8010
8010
8010
8010
4020
4020
4020
2040
2040
1080
1080
F0F0
0000
0000
0000
0000
0000
ENDCHAR
STARTCHAR charBE
ENCODING 190
SWIDTH 640 0
DWIDTH 16 0
BBX 13 25 1 -5
VVECTOR 8 20
SWIDTH1 0 -1000
DWIDTH1 0 -25
BITMAP 
0000
0000
0000
0000
0000
0000
0000
0000
38E0
4510
0208
0208
0208
3FF8
4200
8200
8200
8500
8888
7070
0000
0000
0000
0000
0000
ENDCHAR
STARTCHAR charBF
ENCODING 191
SWIDTH 640 0
DWIDTH 16 0
BBX 12 25 2 -5
VVECTOR 8 20
SWIDTH1 0 -1000
DWIDTH1 0 -25
BITMAP 
0000
0000
0000
0000
0000
0000
0000
0000
0F00
30C0
4060
8090
8110
8210
8410
8810
9010
6020
30C0
0F00
0000
0000
0000
0000
0000
ENDCHAR
STARTCHAR charC0
ENCODING 192
SWIDTH 640 0
DWIDTH 16 0
BBX 11 25 2 -5
VVECTOR 8 20
SWIDTH1 0 -1000
DWIDTH1 0 -25
BITMAP 
0000
0000
0000
0400
0400
0000
0000
0000
0400
0400
0800
1000
2000
4000
8000
8060
8020
4040
2080
1F00
0000
0000
0000
0000
0000
ENDCHAR
STARTCHAR charC1
ENCODING 193
SWIDTH 640 0
DWIDTH 16 0
BBX 1 25 7 -5
VVECTOR 8 20
SWIDTH1 0 -1000
DWIDTH1 0 -25
BITMAP 
00
00
00
80
80
00
00
00
80
80
80
80
80
80
80
80
80
80
80
80
00
00
00
00
00
ENDCHAR
STARTCHAR charC2
ENCODING 194
SWIDTH 640 0
DWIDTH 16 0
BBX 12 25 2 -5
VVECTOR 8 20
SWIDTH1 0 -1000
DWIDTH1 0 -25
BITMAP 
0000
0000
0000
0000
0000
0000
0000
0000
0000
0000
0000
FFF0
0010
0010
0010
0000
0000
0000
0000
0000
0000
0000
0000
0000
0000
ENDCHAR
STARTCHAR charC3
ENCODING 195
SWIDTH 640 0
DWIDTH 16 0
BBX 12 25 2 -5
VVECTOR 8 20
SWIDTH1 0 -1000
DWIDTH1 0 -25
BITMAP 
0000
03F0
0200
0200
0200
0200
0200
0200
0200
0200
0200
0200
0200
0200
0200
0200
0200
0200
2200
5200
8A00
0600
0200
0000
0000
ENDCHAR
STARTCHAR charC4
ENCODING 196
SWIDTH 640 0
DWIDTH 16 0
BBX 13 25 1 -5
VVECTOR 8 20
SWIDTH1 0 -1000
DWIDTH1 0 -25
BITMAP 
0000
0000
0000
00E0
0110
0208
0200
0200
0200
0200
0200
1FC0
0200
0200
0200
0200
0200
0200
0200
0200
8200
4400
3800
0000
0000
ENDCHAR
STARTCHAR charC5
ENCODING 197
SWIDTH 640 0
DWIDTH 16 0
BBX 12 25 2 -5
VVECTOR 8 20
SWIDTH1 0 -1000
DWIDTH1 0 -25
BITMAP 
0000
0000
0000
0000
0000
0000
0000
0000
7C10
83E0
0000
0000
0000
7C10
83E0
0000
0000
0000
0000
0000
0000
0000
0000
0000
0000
ENDCHAR
STARTCHAR charC6
ENCODING 198
SWIDTH 640 0
DWIDTH 16 0
BBX 12 25 2 -5
VVECTOR 8 20
SWIDTH1 0 -1000
DWIDTH1 0 -25
BITMAP 
0000
0000
0000
0600
0900
0900
0900
1080
1080
1080
2040
2040
2040
4020
4020
4020
8010
8010
8010
FFF0
0000
0000
0000
0000
0000
ENDCHAR
STARTCHAR charC7
ENCODING 199
SWIDTH 640 0
DWIDTH 16 0
BBX 12 25 2 -5
VVECTOR 8 20
SWIDTH1 0 -1000
DWIDTH1 0 -25
BITMAP 
0000
0000
0000
0000
0000
0000
0000
0000
0000
0810
1020
2040
4080
8100
4080
2040
1020
0810
0000
0000
0000
0000
0000
0000
0000
ENDCHAR
STARTCHAR charC8
ENCODING 200
SWIDTH 640 0
DWIDTH 16 0
BBX 12 25 2 -5
VVECTOR 8 20
SWIDTH1 0 -1000
DWIDTH1 0 -25
BITMAP 
0000
0000
0000
0000
0000
0000
0000
0000
0000
8100
4080
2040
1020
0810
1020
2040
4080
8100
0000
0000
0000
0000
0000
0000
0000
ENDCHAR
STARTCHAR charC9
ENCODING 201
SWIDTH 640 0
DWIDTH 16 0
BBX 14 25 2 -5
VVECTOR 9 20
SWIDTH1 0 -1000
DWIDTH1 0 -25
BITMAP 
0000
0000
0000
0000
0000
0000
0000
0000
0000
0000
0000
0000
0000
0000
0000
0000
0000
0000
C30C
C30C
0000
0000
0000
0000
0000
ENDCHAR
STARTCHAR charCA
ENCODING 202
SWIDTH 640 0
DWIDTH 16 0
BBX 0 0 2 -5
VVECTOR 2 -5
SWIDTH1 0 0
DWIDTH1 0 0
BITMAP 
ENDCHAR
STARTCHAR charCB
ENCODING 203
SWIDTH 640 0
DWIDTH 16 0
BBX 14 25 1 -5
VVECTOR 8 20
SWIDTH1 0 -1000
DWIDTH1 0 -25
BITMAP 
0C00
0600
0100
0000
0300
0480
0480
0840
0840
0840
1020
1020
1020
1FE0
1020
2010
2010
2010
2010
F87C
0000
0000
0000
0000
0000
ENDCHAR
STARTCHAR charCC
ENCODING 204
SWIDTH 640 0
DWIDTH 16 0
BBX 14 25 1 -5
VVECTOR 8 20
SWIDTH1 0 -1000
DWIDTH1 0 -25
BITMAP 
0E20
11C0
0000
0000
0300
0480
0480
0840
0840
0840
1020
1020
1FE0
1020
1020
2010
2010
2010
2010
F87C
0000
0000
0000
0000
0000
ENDCHAR
STARTCHAR charCD
ENCODING 205
SWIDTH 640 0
DWIDTH 16 0
BBX 12 25 2 -5
VVECTOR 8 20
SWIDTH1 0 -1000
DWIDTH1 0 -25
BITMAP 
1C40
2380
0000
0000
0F00
30C0
4020
4020
8010
8010
8010
8010
8010
8010
8010
8010
4020
4020
30C0
0F00
0000
0000
0000
0000
0000
ENDCHAR
STARTCHAR charCE
ENCODING 206
SWIDTH 640 0
DWIDTH 16 0
BBX 13 25 2 -5
VVECTOR 9 20
SWIDTH1 0 -1000
DWIDTH1 0 -25
BITMAP 
0000
0000
0000
3FF8
4308
8108
8100
8100
8100
8100
81F0
8100
8100
8100
8100
8100
8100
8108
4308
3FF8
0000
0000
0000
0000
0000
ENDCHAR
STARTCHAR charCF
ENCODING 207
SWIDTH 640 0
DWIDTH 16 0
BBX 13 25 1 -5
VVECTOR 8 20
SWIDTH1 0 -1000
DWIDTH1 0 -25
BITMAP 
0000
0000
0000
0000
0000
0000
0000
0000
38E0
4510
8208
8208
8208
83F8
8200
8200
8200
8200
4508
38F0
0000
0000
0000
0000
0000
ENDCHAR
STARTCHAR charD0
ENCODING 208
SWIDTH 640 0
DWIDTH 16 0
BBX 8 25 2 -5
VVECTOR 6 20
SWIDTH1 0 -1000
DWIDTH1 0 -25
BITMAP 
00
00
00
00
00
00
00
00
00
FF
00
00
00
00
00
00
00
00
00
00
00
00
00
00
00
ENDCHAR
STARTCHAR charD1
ENCODING 209
SWIDTH 640 0
DWIDTH 16 0
BBX 16 25 0 -5
VVECTOR 8 20
SWIDTH1 0 -1000
DWIDTH1 0 -25
BITMAP 
0000
0000
0000
0000
0000
0000
0000
0000
0000
FFFF
0000
0000
0000
0000
0000
0000
0000
0000
0000
0000
0000
0000
0000
0000
0000
ENDCHAR
STARTCHAR charD2
ENCODING 210
SWIDTH 640 0
DWIDTH 16 0
BBX 10 25 3 -5
VVECTOR 8 20
SWIDTH1 0 -1000
DWIDTH1 0 -25
BITMAP 
0000
0000
2040
4080
8100
8100
E1C0
60C0
0000
0000
0000
0000
0000
0000
0000
0000
0000
0000
0000
0000
0000
0000
0000
0000
0000
ENDCHAR
STARTCHAR charD3
ENCODING 211
SWIDTH 640 0
DWIDTH 16 0
BBX 10 25 3 -5
VVECTOR 8 20
SWIDTH1 0 -1000
DWIDTH1 0 -25
BITMAP 
0000
0000
C180
E1C0
2040
2040
4080
8100
0000
0000
0000
0000
0000
0000
0000
0000
0000
0000
0000
0000
0000
0000
0000
0000
0000
ENDCHAR
STARTCHAR charD4
ENCODING 212
SWIDTH 640 0
DWIDTH 16 0
BBX 3 25 6 -5
VVECTOR 8 20
SWIDTH1 0 -1000
DWIDTH1 0 -25
BITMAP 
00
00
20
40
80
80
E0
60
00
00
00
00
00
00
00
00
00
00
00
00
00
00
00
00
00
ENDCHAR
STARTCHAR charD5
ENCODING 213
SWIDTH 640 0
DWIDTH 16 0
BBX 3 25 6 -5
VVECTOR 8 20
SWIDTH1 0 -1000
DWIDTH1 0 -25
BITMAP 
00
00
C0
E0
20
20
40
80
00
00
00
00
00
00
00
00
00
00
00
00
00
00
00
00
00
ENDCHAR
STARTCHAR charD6
ENCODING 214
SWIDTH 640 0
DWIDTH 16 0
BBX 12 25 2 -5
VVECTOR 8 20
SWIDTH1 0 -1000
DWIDTH1 0 -25
BITMAP 
0000
0000
0000
0000
0000
0000
0600
0600
0000
0000
0000
FFF0
0000
0000
0000
0600
0600
0000
0000
0000
0000
0000
0000
0000
0000
ENDCHAR
STARTCHAR charD7
ENCODING 215
SWIDTH 640 0
DWIDTH 16 0
BBX 13 25 1 -5
VVECTOR 8 20
SWIDTH1 0 -1000
DWIDTH1 0 -25
BITMAP 
0000
0000
0000
0000
0000
0200
0500
0880
1040
2020
4010
8008
4010
2020
1040
0880
0500
0200
0000
0000
0000
0000
0000
0000
0000
ENDCHAR
STARTCHAR charD8
ENCODING 216
SWIDTH 640 0
DWIDTH 16 0
BBX 15 25 1 -5
VVECTOR 9 20
SWIDTH1 0 -1000
DWIDTH1 0 -25
BITMAP 
0000
0000
0000
0000
0C60
0000
0000
0000
F83E
2008
2008
1010
1010
0820
0820
0440
0440
0280
0280
0100
0100
C200
8200
4400
3800
ENDCHAR
STARTCHAR missing
ENCODING -1
SWIDTH 640 0
DWIDTH 16 0
BBX 14 25 1 -5
VVECTOR 8 20
SWIDTH1 0 -1000
DWIDTH1 0 -25
BITMAP 
0000
FFFC
FFFC
F03C
C00C
C004
8304
8784
8784
FF84
FF84
FF04
FE0C
FC1C
F83C
F87C
F87C
FFFC
FFFC
F87C
F03C
F03C
F87C
FFFC
0000
ENDCHAR
ENDFONT
